# xmcd
# 
# Track frame offsets:
#     150
#     19881
#     38183
#     54833
#     73252
#     93092
#     99282
#     121316
#     142035
#     165474
# 
# Disc length: 2521
# 
# Revision: 0
# Processed by: cddbd v1.5.2PL0 Copyright (c) Steve Scherf et al.
# Submitted via: fre:ac v1.0.17
# 
DISCID=7d09d70a
DTITLE=Anthem - Bound To Break (30th Remix)
DYEAR=1999
DGENRE=Heavy Metal
TTITLE0=Bound To Break
TTITLE1=Empty Eyes
TTITLE2=Show Must Go On
TTITLE3=Rock'n  Roll Survivor
TTITLE4=Soldiers
TTITLE5=Limited Lights
TTITLE6=Machine Made Dog
TTITLE7=No More Night
TTITLE8=Headstrong
TTITLE9=Fire'n' The Sword
EXTD=YEAR: 1987
EXTT0=
EXTT1=
EXTT2=
EXTT3=
EXTT4=
EXTT5=
EXTT6=
EXTT7=
EXTT8=
EXTT9=
PLAYORDER=
